<svg width="25" height="24" viewBox="0 0 25 24" fill="none" xmlns="http://www.w3.org/2000/svg">
<path fill-rule="evenodd" clip-rule="evenodd" d="M8.26567 3.43431C8.5781 3.74672 8.5781 4.25325 8.26567 4.56567L6.43136 6.39999H14.9C18.8765 6.39999 22.1 9.62354 22.1 13.6C22.1 17.5765 18.8765 20.8 14.9 20.8H8.49999C8.05816 20.8 7.69999 20.4417 7.69999 20C7.69999 19.5582 8.05816 19.2 8.49999 19.2H14.9C17.9928 19.2 20.5 16.6928 20.5 13.6C20.5 10.5072 17.9928 7.99999 14.9 7.99999H6.43136L8.26567 9.83431C8.5781 10.1467 8.5781 10.6532 8.26567 10.9657C7.95325 11.2781 7.44672 11.2781 7.13431 10.9657L3.93431 7.76567C3.62187 7.45325 3.62187 6.94672 3.93431 6.63431L7.13431 3.43431C7.44672 3.12187 7.95325 3.12187 8.26567 3.43431Z" fill="white"/>
</svg>
